<mxfile host="app.diagrams.net" agent="Mozilla/5.0 (Windows NT 10.0; Win64; x64) AppleWebKit/537.36 (KHTML, like Gecko) Chrome/134.0.0.0 Safari/537.36" version="26.1.0">
  <diagram name="Страница — 1" id="obQW8SJ14XWX2nebOJNz">
    <mxGraphModel dx="2261" dy="1907" grid="1" gridSize="10" guides="1" tooltips="1" connect="1" arrows="1" fold="1" page="1" pageScale="1" pageWidth="827" pageHeight="1169" math="0" shadow="0">
      <root>
        <mxCell id="0" />
        <mxCell id="1" parent="0" />
        <mxCell id="U7h1qWwQrb6PWzXlTbH8-1" value="&amp;nbsp; &amp;nbsp; &amp;nbsp; &amp;nbsp; &amp;nbsp; &amp;nbsp; &amp;nbsp; &amp;nbsp; &amp;nbsp; &amp;nbsp; &amp;nbsp; Администратор" style="shape=umlActor;verticalLabelPosition=bottom;verticalAlign=top;html=1;outlineConnect=0;" vertex="1" parent="1">
          <mxGeometry x="670" y="120" width="30" height="60" as="geometry" />
        </mxCell>
        <mxCell id="U7h1qWwQrb6PWzXlTbH8-2" value="Клиент" style="shape=umlActor;verticalLabelPosition=bottom;verticalAlign=top;html=1;outlineConnect=0;" vertex="1" parent="1">
          <mxGeometry x="440" y="50" width="30" height="60" as="geometry" />
        </mxCell>
        <mxCell id="U7h1qWwQrb6PWzXlTbH8-3" value="Пользователь" style="shape=umlActor;verticalLabelPosition=bottom;verticalAlign=top;html=1;outlineConnect=0;" vertex="1" parent="1">
          <mxGeometry x="290" y="130" width="30" height="60" as="geometry" />
        </mxCell>
        <mxCell id="U7h1qWwQrb6PWzXlTbH8-4" value="Просмотр маршрута по пользовательскому&lt;div&gt;запросу&lt;/div&gt;" style="ellipse;whiteSpace=wrap;html=1;" vertex="1" parent="1">
          <mxGeometry x="620" y="230" width="160" height="80" as="geometry" />
        </mxCell>
        <mxCell id="U7h1qWwQrb6PWzXlTbH8-5" value="Пропустить маршрут" style="ellipse;whiteSpace=wrap;html=1;" vertex="1" parent="1">
          <mxGeometry x="590" y="360" width="130" height="70" as="geometry" />
        </mxCell>
        <mxCell id="U7h1qWwQrb6PWzXlTbH8-7" value="Отметить ошибку&lt;div&gt;в маршруте&lt;/div&gt;" style="ellipse;whiteSpace=wrap;html=1;" vertex="1" parent="1">
          <mxGeometry x="730" y="350" width="130" height="70" as="geometry" />
        </mxCell>
        <mxCell id="U7h1qWwQrb6PWzXlTbH8-8" value="Extends" style="endArrow=block;endSize=16;endFill=0;html=1;rounded=0;exitX=1;exitY=0.3333333333333333;exitDx=0;exitDy=0;exitPerimeter=0;" edge="1" parent="1" source="U7h1qWwQrb6PWzXlTbH8-3" target="U7h1qWwQrb6PWzXlTbH8-2">
          <mxGeometry width="160" relative="1" as="geometry">
            <mxPoint x="330" y="380" as="sourcePoint" />
            <mxPoint x="490" y="380" as="targetPoint" />
          </mxGeometry>
        </mxCell>
        <mxCell id="U7h1qWwQrb6PWzXlTbH8-9" value="Extends" style="endArrow=block;endSize=16;endFill=0;html=1;rounded=0;exitX=0;exitY=0.3333333333333333;exitDx=0;exitDy=0;exitPerimeter=0;" edge="1" parent="1" source="U7h1qWwQrb6PWzXlTbH8-1" target="U7h1qWwQrb6PWzXlTbH8-2">
          <mxGeometry width="160" relative="1" as="geometry">
            <mxPoint x="330" y="380" as="sourcePoint" />
            <mxPoint x="490" y="380" as="targetPoint" />
          </mxGeometry>
        </mxCell>
        <mxCell id="U7h1qWwQrb6PWzXlTbH8-10" value="Создать запрос" style="ellipse;whiteSpace=wrap;html=1;" vertex="1" parent="1">
          <mxGeometry x="349" y="240" width="130" height="60" as="geometry" />
        </mxCell>
        <mxCell id="U7h1qWwQrb6PWzXlTbH8-11" value="Сохранить запрос" style="ellipse;whiteSpace=wrap;html=1;" vertex="1" parent="1">
          <mxGeometry x="210" y="310" width="130" height="60" as="geometry" />
        </mxCell>
        <mxCell id="U7h1qWwQrb6PWzXlTbH8-12" value="Указать&lt;div&gt;начальную и&lt;/div&gt;&lt;div&gt;конечную точки&lt;/div&gt;" style="ellipse;whiteSpace=wrap;html=1;" vertex="1" parent="1">
          <mxGeometry x="340" y="360" width="130" height="60" as="geometry" />
        </mxCell>
        <mxCell id="U7h1qWwQrb6PWzXlTbH8-13" value="Выбрать&amp;nbsp;&lt;div&gt;&lt;span style=&quot;background-color: transparent; color: light-dark(rgb(0, 0, 0), rgb(255, 255, 255));&quot;&gt;параметры&lt;/span&gt;&lt;/div&gt;&lt;div&gt;&lt;span style=&quot;background-color: transparent; color: light-dark(rgb(0, 0, 0), rgb(255, 255, 255));&quot;&gt;запроса&lt;/span&gt;&lt;/div&gt;" style="ellipse;whiteSpace=wrap;html=1;" vertex="1" parent="1">
          <mxGeometry x="460" y="320" width="130" height="60" as="geometry" />
        </mxCell>
        <mxCell id="U7h1qWwQrb6PWzXlTbH8-14" value="Перегенерировать&lt;div&gt;маршрут&lt;/div&gt;" style="ellipse;whiteSpace=wrap;html=1;" vertex="1" parent="1">
          <mxGeometry x="450" y="150" width="130" height="60" as="geometry" />
        </mxCell>
        <mxCell id="U7h1qWwQrb6PWzXlTbH8-15" value="Управлять&lt;div&gt;аккаунтом&lt;/div&gt;" style="ellipse;whiteSpace=wrap;html=1;" vertex="1" parent="1">
          <mxGeometry x="479" y="-20" width="130" height="60" as="geometry" />
        </mxCell>
        <mxCell id="U7h1qWwQrb6PWzXlTbH8-16" value="Выход из системы" style="ellipse;whiteSpace=wrap;html=1;" vertex="1" parent="1">
          <mxGeometry x="620" y="40" width="130" height="60" as="geometry" />
        </mxCell>
        <mxCell id="U7h1qWwQrb6PWzXlTbH8-17" value="Авторизация" style="ellipse;whiteSpace=wrap;html=1;" vertex="1" parent="1">
          <mxGeometry x="580" y="-110" width="130" height="60" as="geometry" />
        </mxCell>
        <mxCell id="U7h1qWwQrb6PWzXlTbH8-18" value="Аутентификация&lt;div&gt;через Google&lt;/div&gt;" style="ellipse;whiteSpace=wrap;html=1;" vertex="1" parent="1">
          <mxGeometry x="414" y="-120" width="130" height="60" as="geometry" />
        </mxCell>
        <mxCell id="U7h1qWwQrb6PWzXlTbH8-19" value="Использовать&lt;div&gt;маршрут&lt;/div&gt;&lt;div&gt;из запроса&lt;/div&gt;" style="ellipse;whiteSpace=wrap;html=1;" vertex="1" parent="1">
          <mxGeometry x="100" y="150" width="130" height="60" as="geometry" />
        </mxCell>
        <mxCell id="U7h1qWwQrb6PWzXlTbH8-20" value="Получать&lt;div&gt;&amp;nbsp;обновления&lt;div&gt;сегментов&lt;/div&gt;&lt;/div&gt;&lt;div&gt;маршрута&lt;/div&gt;" style="ellipse;whiteSpace=wrap;html=1;" vertex="1" parent="1">
          <mxGeometry x="-70" y="190" width="130" height="70" as="geometry" />
        </mxCell>
        <mxCell id="U7h1qWwQrb6PWzXlTbH8-21" value="Прекратить&amp;nbsp;&lt;div&gt;следование&lt;/div&gt;" style="ellipse;whiteSpace=wrap;html=1;" vertex="1" parent="1">
          <mxGeometry x="80" y="240" width="130" height="60" as="geometry" />
        </mxCell>
        <mxCell id="U7h1qWwQrb6PWzXlTbH8-22" value="Следовать по маршруту" style="ellipse;whiteSpace=wrap;html=1;" vertex="1" parent="1">
          <mxGeometry x="-60" y="100" width="130" height="60" as="geometry" />
        </mxCell>
        <mxCell id="U7h1qWwQrb6PWzXlTbH8-23" value="Отменить маршрут" style="ellipse;whiteSpace=wrap;html=1;" vertex="1" parent="1">
          <mxGeometry x="10" y="20" width="130" height="60" as="geometry" />
        </mxCell>
        <mxCell id="U7h1qWwQrb6PWzXlTbH8-24" value="Просмотреть&lt;div&gt;сохраненные запросы&lt;/div&gt;" style="ellipse;whiteSpace=wrap;html=1;" vertex="1" parent="1">
          <mxGeometry x="130" y="-80" width="130" height="60" as="geometry" />
        </mxCell>
        <mxCell id="U7h1qWwQrb6PWzXlTbH8-25" value="Поощрить&lt;div&gt;разработчика&lt;/div&gt;&lt;div&gt;системы&lt;/div&gt;" style="ellipse;whiteSpace=wrap;html=1;" vertex="1" parent="1">
          <mxGeometry x="260" y="-20" width="130" height="60" as="geometry" />
        </mxCell>
        <mxCell id="U7h1qWwQrb6PWzXlTbH8-26" value="" style="endArrow=classic;html=1;rounded=0;exitX=0;exitY=0.3333333333333333;exitDx=0;exitDy=0;exitPerimeter=0;entryX=0.923;entryY=0.317;entryDx=0;entryDy=0;entryPerimeter=0;" edge="1" parent="1" source="U7h1qWwQrb6PWzXlTbH8-3" target="U7h1qWwQrb6PWzXlTbH8-19">
          <mxGeometry width="50" height="50" relative="1" as="geometry">
            <mxPoint x="390" y="210" as="sourcePoint" />
            <mxPoint x="440" y="160" as="targetPoint" />
          </mxGeometry>
        </mxCell>
        <mxCell id="U7h1qWwQrb6PWzXlTbH8-27" value="" style="endArrow=classic;html=1;rounded=0;exitX=0;exitY=0.3333333333333333;exitDx=0;exitDy=0;exitPerimeter=0;entryX=0.5;entryY=1;entryDx=0;entryDy=0;" edge="1" parent="1" source="U7h1qWwQrb6PWzXlTbH8-3" target="U7h1qWwQrb6PWzXlTbH8-24">
          <mxGeometry width="50" height="50" relative="1" as="geometry">
            <mxPoint x="390" y="210" as="sourcePoint" />
            <mxPoint x="440" y="160" as="targetPoint" />
          </mxGeometry>
        </mxCell>
        <mxCell id="U7h1qWwQrb6PWzXlTbH8-28" value="" style="endArrow=classic;html=1;rounded=0;entryX=0.3;entryY=0.933;entryDx=0;entryDy=0;entryPerimeter=0;exitX=0;exitY=0.3333333333333333;exitDx=0;exitDy=0;exitPerimeter=0;" edge="1" parent="1" source="U7h1qWwQrb6PWzXlTbH8-3" target="U7h1qWwQrb6PWzXlTbH8-25">
          <mxGeometry width="50" height="50" relative="1" as="geometry">
            <mxPoint x="390" y="210" as="sourcePoint" />
            <mxPoint x="440" y="160" as="targetPoint" />
          </mxGeometry>
        </mxCell>
        <mxCell id="U7h1qWwQrb6PWzXlTbH8-29" value="" style="endArrow=classic;html=1;rounded=0;exitX=1;exitY=0.3333333333333333;exitDx=0;exitDy=0;exitPerimeter=0;entryX=0.215;entryY=0.067;entryDx=0;entryDy=0;entryPerimeter=0;" edge="1" parent="1" source="U7h1qWwQrb6PWzXlTbH8-3" target="U7h1qWwQrb6PWzXlTbH8-10">
          <mxGeometry width="50" height="50" relative="1" as="geometry">
            <mxPoint x="390" y="210" as="sourcePoint" />
            <mxPoint x="440" y="160" as="targetPoint" />
          </mxGeometry>
        </mxCell>
        <mxCell id="U7h1qWwQrb6PWzXlTbH8-30" value="" style="endArrow=classic;html=1;rounded=0;entryX=0;entryY=1;entryDx=0;entryDy=0;exitX=1;exitY=0.3333333333333333;exitDx=0;exitDy=0;exitPerimeter=0;" edge="1" parent="1" source="U7h1qWwQrb6PWzXlTbH8-2" target="U7h1qWwQrb6PWzXlTbH8-15">
          <mxGeometry width="50" height="50" relative="1" as="geometry">
            <mxPoint x="390" y="210" as="sourcePoint" />
            <mxPoint x="440" y="160" as="targetPoint" />
          </mxGeometry>
        </mxCell>
        <mxCell id="U7h1qWwQrb6PWzXlTbH8-31" value="" style="endArrow=classic;html=1;rounded=0;exitX=0;exitY=1;exitDx=0;exitDy=0;exitPerimeter=0;entryX=0.4;entryY=0;entryDx=0;entryDy=0;entryPerimeter=0;" edge="1" parent="1" source="U7h1qWwQrb6PWzXlTbH8-1" target="U7h1qWwQrb6PWzXlTbH8-4">
          <mxGeometry width="50" height="50" relative="1" as="geometry">
            <mxPoint x="390" y="210" as="sourcePoint" />
            <mxPoint x="440" y="160" as="targetPoint" />
          </mxGeometry>
        </mxCell>
        <mxCell id="U7h1qWwQrb6PWzXlTbH8-32" value="&quot;extends&quot;" style="html=1;verticalAlign=bottom;endArrow=open;dashed=1;endSize=8;curved=0;rounded=0;exitX=0.5;exitY=0;exitDx=0;exitDy=0;" edge="1" parent="1" source="U7h1qWwQrb6PWzXlTbH8-5" target="U7h1qWwQrb6PWzXlTbH8-4">
          <mxGeometry relative="1" as="geometry">
            <mxPoint x="450" y="180" as="sourcePoint" />
            <mxPoint x="370" y="180" as="targetPoint" />
          </mxGeometry>
        </mxCell>
        <mxCell id="U7h1qWwQrb6PWzXlTbH8-33" value="&quot;extends&quot;" style="html=1;verticalAlign=bottom;endArrow=open;dashed=1;endSize=8;curved=0;rounded=0;entryX=0.6;entryY=0.95;entryDx=0;entryDy=0;entryPerimeter=0;" edge="1" parent="1" source="U7h1qWwQrb6PWzXlTbH8-7" target="U7h1qWwQrb6PWzXlTbH8-4">
          <mxGeometry relative="1" as="geometry">
            <mxPoint x="665" y="370" as="sourcePoint" />
            <mxPoint x="691" y="319" as="targetPoint" />
          </mxGeometry>
        </mxCell>
        <mxCell id="U7h1qWwQrb6PWzXlTbH8-34" value="&quot;extends&quot;" style="html=1;verticalAlign=bottom;endArrow=open;dashed=1;endSize=8;curved=0;rounded=0;exitX=0.638;exitY=0.95;exitDx=0;exitDy=0;exitPerimeter=0;" edge="1" parent="1" source="U7h1qWwQrb6PWzXlTbH8-18" target="U7h1qWwQrb6PWzXlTbH8-15">
          <mxGeometry x="-0.0124" relative="1" as="geometry">
            <mxPoint x="675" y="380" as="sourcePoint" />
            <mxPoint x="701" y="329" as="targetPoint" />
            <mxPoint as="offset" />
          </mxGeometry>
        </mxCell>
        <mxCell id="U7h1qWwQrb6PWzXlTbH8-35" value="&quot;extends&quot;" style="html=1;verticalAlign=bottom;endArrow=open;dashed=1;endSize=8;curved=0;rounded=0;exitX=0;exitY=1;exitDx=0;exitDy=0;entryX=0.623;entryY=0;entryDx=0;entryDy=0;entryPerimeter=0;" edge="1" parent="1" source="U7h1qWwQrb6PWzXlTbH8-17" target="U7h1qWwQrb6PWzXlTbH8-15">
          <mxGeometry x="-0.0124" relative="1" as="geometry">
            <mxPoint x="507" y="-53" as="sourcePoint" />
            <mxPoint x="535" y="-9" as="targetPoint" />
            <mxPoint as="offset" />
          </mxGeometry>
        </mxCell>
        <mxCell id="U7h1qWwQrb6PWzXlTbH8-36" value="&quot;extends&quot;" style="html=1;verticalAlign=bottom;endArrow=open;dashed=1;endSize=8;curved=0;rounded=0;exitX=0.5;exitY=0;exitDx=0;exitDy=0;entryX=0.5;entryY=1;entryDx=0;entryDy=0;" edge="1" parent="1" source="U7h1qWwQrb6PWzXlTbH8-12" target="U7h1qWwQrb6PWzXlTbH8-10">
          <mxGeometry x="-0.0124" relative="1" as="geometry">
            <mxPoint x="517" y="-43" as="sourcePoint" />
            <mxPoint x="545" y="1" as="targetPoint" />
            <mxPoint as="offset" />
          </mxGeometry>
        </mxCell>
        <mxCell id="U7h1qWwQrb6PWzXlTbH8-37" value="&quot;extends&quot;" style="html=1;verticalAlign=bottom;endArrow=open;dashed=1;endSize=8;curved=0;rounded=0;entryX=0.769;entryY=0.95;entryDx=0;entryDy=0;entryPerimeter=0;" edge="1" parent="1" source="U7h1qWwQrb6PWzXlTbH8-13" target="U7h1qWwQrb6PWzXlTbH8-10">
          <mxGeometry x="-0.0124" relative="1" as="geometry">
            <mxPoint x="415" y="370" as="sourcePoint" />
            <mxPoint x="424" y="310" as="targetPoint" />
            <mxPoint as="offset" />
          </mxGeometry>
        </mxCell>
        <mxCell id="U7h1qWwQrb6PWzXlTbH8-38" value="&quot;extends&quot;" style="html=1;verticalAlign=bottom;endArrow=open;dashed=1;endSize=8;curved=0;rounded=0;exitX=0.5;exitY=0;exitDx=0;exitDy=0;entryX=0.446;entryY=1;entryDx=0;entryDy=0;entryPerimeter=0;" edge="1" parent="1" source="U7h1qWwQrb6PWzXlTbH8-21" target="U7h1qWwQrb6PWzXlTbH8-19">
          <mxGeometry x="-0.8785" y="-5" relative="1" as="geometry">
            <mxPoint x="425" y="380" as="sourcePoint" />
            <mxPoint x="434" y="320" as="targetPoint" />
            <mxPoint as="offset" />
          </mxGeometry>
        </mxCell>
        <mxCell id="U7h1qWwQrb6PWzXlTbH8-39" value="&quot;extends&quot;" style="html=1;verticalAlign=bottom;endArrow=open;dashed=1;endSize=8;curved=0;rounded=0;exitX=0.954;exitY=0.75;exitDx=0;exitDy=0;entryX=0.054;entryY=0.3;entryDx=0;entryDy=0;exitPerimeter=0;entryPerimeter=0;" edge="1" parent="1" source="U7h1qWwQrb6PWzXlTbH8-22" target="U7h1qWwQrb6PWzXlTbH8-19">
          <mxGeometry x="-0.0124" relative="1" as="geometry">
            <mxPoint x="435" y="390" as="sourcePoint" />
            <mxPoint x="444" y="330" as="targetPoint" />
            <mxPoint as="offset" />
          </mxGeometry>
        </mxCell>
        <mxCell id="U7h1qWwQrb6PWzXlTbH8-40" value="&quot;extends&quot;" style="html=1;verticalAlign=bottom;endArrow=open;dashed=1;endSize=8;curved=0;rounded=0;exitX=1;exitY=0.5;exitDx=0;exitDy=0;" edge="1" parent="1" source="U7h1qWwQrb6PWzXlTbH8-20" target="U7h1qWwQrb6PWzXlTbH8-19">
          <mxGeometry x="-0.0124" relative="1" as="geometry">
            <mxPoint x="445" y="400" as="sourcePoint" />
            <mxPoint x="454" y="340" as="targetPoint" />
            <mxPoint as="offset" />
          </mxGeometry>
        </mxCell>
        <mxCell id="U7h1qWwQrb6PWzXlTbH8-41" value="&quot;include&quot;" style="html=1;verticalAlign=bottom;endArrow=open;dashed=1;endSize=8;curved=0;rounded=0;exitX=1;exitY=1;exitDx=0;exitDy=0;" edge="1" parent="1" source="U7h1qWwQrb6PWzXlTbH8-23" target="U7h1qWwQrb6PWzXlTbH8-19">
          <mxGeometry x="-0.2091" y="7" relative="1" as="geometry">
            <mxPoint x="100" y="420" as="sourcePoint" />
            <mxPoint x="109" y="360" as="targetPoint" />
            <mxPoint as="offset" />
          </mxGeometry>
        </mxCell>
        <mxCell id="U7h1qWwQrb6PWzXlTbH8-42" value="&quot;include&quot;" style="html=1;verticalAlign=bottom;endArrow=open;dashed=1;endSize=8;curved=0;rounded=0;exitX=0.008;exitY=0.633;exitDx=0;exitDy=0;exitPerimeter=0;entryX=0.5;entryY=0;entryDx=0;entryDy=0;" edge="1" parent="1" source="U7h1qWwQrb6PWzXlTbH8-10" target="U7h1qWwQrb6PWzXlTbH8-11">
          <mxGeometry x="-0.2091" y="7" relative="1" as="geometry">
            <mxPoint x="131" y="81" as="sourcePoint" />
            <mxPoint x="163" y="161" as="targetPoint" />
            <mxPoint as="offset" />
          </mxGeometry>
        </mxCell>
        <mxCell id="U7h1qWwQrb6PWzXlTbH8-43" value="&quot;include&quot;" style="html=1;verticalAlign=bottom;endArrow=open;dashed=1;endSize=8;curved=0;rounded=0;exitX=0.208;exitY=0.883;exitDx=0;exitDy=0;entryX=0.5;entryY=0;entryDx=0;entryDy=0;exitPerimeter=0;" edge="1" parent="1" source="U7h1qWwQrb6PWzXlTbH8-14" target="U7h1qWwQrb6PWzXlTbH8-10">
          <mxGeometry x="-0.1997" y="7" relative="1" as="geometry">
            <mxPoint x="141" y="91" as="sourcePoint" />
            <mxPoint x="173" y="171" as="targetPoint" />
            <mxPoint as="offset" />
          </mxGeometry>
        </mxCell>
        <mxCell id="U7h1qWwQrb6PWzXlTbH8-44" value="&quot;include&quot;" style="html=1;verticalAlign=bottom;endArrow=open;dashed=1;endSize=8;curved=0;rounded=0;exitX=1;exitY=0.5;exitDx=0;exitDy=0;" edge="1" parent="1" source="U7h1qWwQrb6PWzXlTbH8-15" target="U7h1qWwQrb6PWzXlTbH8-16">
          <mxGeometry x="-0.2091" y="7" relative="1" as="geometry">
            <mxPoint x="151" y="101" as="sourcePoint" />
            <mxPoint x="183" y="181" as="targetPoint" />
            <mxPoint as="offset" />
          </mxGeometry>
        </mxCell>
      </root>
    </mxGraphModel>
  </diagram>
</mxfile>
